<mxfile host="app.diagrams.net" modified="2021-10-14T11:18:44.688Z" agent="5.0 (Macintosh; Intel Mac OS X 10_15_7) AppleWebKit/537.36 (KHTML, like Gecko) Chrome/94.0.4606.71 Safari/537.36" etag="9nLzpRYQM1I1YTiSLqAL" version="15.2.7" type="github">
  <diagram id="EC7bf7q_AM_L0tjhKUXq" name="Halaman-1">
    <mxGraphModel dx="1426" dy="737" grid="1" gridSize="10" guides="1" tooltips="1" connect="1" arrows="1" fold="1" page="1" pageScale="1" pageWidth="583" pageHeight="827" math="0" shadow="0">
      <root>
        <mxCell id="0" />
        <mxCell id="1" parent="0" />
        <mxCell id="zSt_G3QFuuQzdCctbltx-1" value="WebView" style="shape=umlLifeline;perimeter=lifelinePerimeter;whiteSpace=wrap;html=1;container=1;collapsible=0;recursiveResize=0;outlineConnect=0;fillColor=#f8cecc;strokeColor=#b85450;" vertex="1" parent="1">
          <mxGeometry x="130" y="99" width="100" height="630" as="geometry" />
        </mxCell>
        <mxCell id="zSt_G3QFuuQzdCctbltx-2" value="" style="html=1;points=[];perimeter=orthogonalPerimeter;fillColor=#FF3333;" vertex="1" parent="zSt_G3QFuuQzdCctbltx-1">
          <mxGeometry x="45" y="70" width="10" height="50" as="geometry" />
        </mxCell>
        <mxCell id="zSt_G3QFuuQzdCctbltx-3" value="" style="html=1;points=[];perimeter=orthogonalPerimeter;fillColor=#FF3333;" vertex="1" parent="zSt_G3QFuuQzdCctbltx-1">
          <mxGeometry x="45" y="160" width="10" height="80" as="geometry" />
        </mxCell>
        <mxCell id="zSt_G3QFuuQzdCctbltx-4" value="" style="html=1;points=[];perimeter=orthogonalPerimeter;fillColor=#FF3333;" vertex="1" parent="zSt_G3QFuuQzdCctbltx-1">
          <mxGeometry x="45" y="280" width="10" height="80" as="geometry" />
        </mxCell>
        <mxCell id="zSt_G3QFuuQzdCctbltx-5" value="" style="html=1;points=[];perimeter=orthogonalPerimeter;fillColor=#FF3333;" vertex="1" parent="zSt_G3QFuuQzdCctbltx-1">
          <mxGeometry x="45" y="400" width="10" height="80" as="geometry" />
        </mxCell>
        <mxCell id="zSt_G3QFuuQzdCctbltx-6" value="" style="html=1;points=[];perimeter=orthogonalPerimeter;fillColor=#FF3333;" vertex="1" parent="zSt_G3QFuuQzdCctbltx-1">
          <mxGeometry x="45" y="520" width="10" height="90" as="geometry" />
        </mxCell>
        <mxCell id="zSt_G3QFuuQzdCctbltx-7" value="cordova" style="shape=umlLifeline;perimeter=lifelinePerimeter;whiteSpace=wrap;html=1;container=1;collapsible=0;recursiveResize=0;outlineConnect=0;fillColor=#f8cecc;strokeColor=#b85450;" vertex="1" parent="1">
          <mxGeometry x="320" y="99" width="100" height="630" as="geometry" />
        </mxCell>
        <mxCell id="zSt_G3QFuuQzdCctbltx-8" value="&lt;p style=&quot;line-height: 120%&quot;&gt;&lt;/p&gt;&lt;pre style=&quot;color: rgb(0 , 0 , 0) ; font-family: &amp;#34;menlo&amp;#34; , monospace&quot;&gt;&lt;span style=&quot;font-size: 10px&quot;&gt;副屏&lt;/span&gt;&lt;span style=&quot;font-size: 10px ; white-space: normal&quot;&gt;plugin&lt;/span&gt;&lt;span style=&quot;background-color: rgb(255 , 255 , 255)&quot;&gt;&lt;br&gt;&lt;/span&gt;&lt;/pre&gt;&lt;p&gt;&lt;/p&gt;" style="shape=umlLifeline;perimeter=lifelinePerimeter;whiteSpace=wrap;html=1;container=1;collapsible=0;recursiveResize=0;outlineConnect=0;fillColor=#f8cecc;strokeColor=#b85450;" vertex="1" parent="1">
          <mxGeometry x="499" y="99" width="131" height="610" as="geometry" />
        </mxCell>
        <mxCell id="zSt_G3QFuuQzdCctbltx-9" value="" style="html=1;points=[];perimeter=orthogonalPerimeter;fillColor=#FF3333;" vertex="1" parent="zSt_G3QFuuQzdCctbltx-8">
          <mxGeometry x="60.5" y="155" width="10" height="80" as="geometry" />
        </mxCell>
        <mxCell id="zSt_G3QFuuQzdCctbltx-10" value="" style="html=1;points=[];perimeter=orthogonalPerimeter;fillColor=#FF3333;" vertex="1" parent="zSt_G3QFuuQzdCctbltx-8">
          <mxGeometry x="60.5" y="280" width="10" height="80" as="geometry" />
        </mxCell>
        <mxCell id="zSt_G3QFuuQzdCctbltx-11" value="发送成功" style="html=1;verticalAlign=bottom;endArrow=open;dashed=1;endSize=8;exitX=0;exitY=0.95;" edge="1" parent="zSt_G3QFuuQzdCctbltx-8" source="zSt_G3QFuuQzdCctbltx-10">
          <mxGeometry relative="1" as="geometry">
            <mxPoint x="-319" y="356" as="targetPoint" />
          </mxGeometry>
        </mxCell>
        <mxCell id="zSt_G3QFuuQzdCctbltx-12" value="" style="html=1;points=[];perimeter=orthogonalPerimeter;fillColor=#FF3333;" vertex="1" parent="zSt_G3QFuuQzdCctbltx-8">
          <mxGeometry x="60.5" y="520" width="10" height="90" as="geometry" />
        </mxCell>
        <mxCell id="zSt_G3QFuuQzdCctbltx-13" value="主屏结算页面 向副屏发送结算信息 {step:2,settle:Object}" style="html=1;verticalAlign=bottom;endArrow=block;entryX=0;entryY=0;" edge="1" parent="zSt_G3QFuuQzdCctbltx-8" target="zSt_G3QFuuQzdCctbltx-12">
          <mxGeometry relative="1" as="geometry">
            <mxPoint x="-320.5" y="520" as="sourcePoint" />
          </mxGeometry>
        </mxCell>
        <mxCell id="zSt_G3QFuuQzdCctbltx-14" value="update success" style="html=1;verticalAlign=bottom;endArrow=open;dashed=1;endSize=8;" edge="1" parent="zSt_G3QFuuQzdCctbltx-8" source="zSt_G3QFuuQzdCctbltx-41">
          <mxGeometry relative="1" as="geometry">
            <mxPoint x="71" y="600" as="targetPoint" />
            <Array as="points">
              <mxPoint x="150" y="600" />
            </Array>
          </mxGeometry>
        </mxCell>
        <mxCell id="zSt_G3QFuuQzdCctbltx-15" value="副屏" style="shape=umlLifeline;perimeter=lifelinePerimeter;whiteSpace=wrap;html=1;container=1;collapsible=0;recursiveResize=0;outlineConnect=0;fillColor=#f8cecc;strokeColor=#b85450;" vertex="1" parent="1">
          <mxGeometry x="920" y="99" width="100" height="630" as="geometry" />
        </mxCell>
        <mxCell id="zSt_G3QFuuQzdCctbltx-16" value="" style="html=1;points=[];perimeter=orthogonalPerimeter;fillColor=#FF3333;" vertex="1" parent="zSt_G3QFuuQzdCctbltx-15">
          <mxGeometry x="45" y="180" width="10" height="30" as="geometry" />
        </mxCell>
        <mxCell id="zSt_G3QFuuQzdCctbltx-17" value="" style="html=1;points=[];perimeter=orthogonalPerimeter;fillColor=#FF3333;" vertex="1" parent="zSt_G3QFuuQzdCctbltx-15">
          <mxGeometry x="45" y="300" width="10" height="40" as="geometry" />
        </mxCell>
        <mxCell id="zSt_G3QFuuQzdCctbltx-18" value="" style="html=1;points=[];perimeter=orthogonalPerimeter;fillColor=#FF3333;" vertex="1" parent="zSt_G3QFuuQzdCctbltx-15">
          <mxGeometry x="45" y="420" width="10" height="40" as="geometry" />
        </mxCell>
        <mxCell id="zSt_G3QFuuQzdCctbltx-19" value="" style="html=1;points=[];perimeter=orthogonalPerimeter;fillColor=#FF3333;" vertex="1" parent="zSt_G3QFuuQzdCctbltx-15">
          <mxGeometry x="47" y="540" width="10" height="50" as="geometry" />
        </mxCell>
        <mxCell id="zSt_G3QFuuQzdCctbltx-20" value="初始化数据" style="html=1;verticalAlign=bottom;endArrow=block;entryX=0;entryY=0;" edge="1" parent="1" source="zSt_G3QFuuQzdCctbltx-1" target="zSt_G3QFuuQzdCctbltx-50">
          <mxGeometry relative="1" as="geometry">
            <mxPoint x="665" y="169" as="sourcePoint" />
          </mxGeometry>
        </mxCell>
        <mxCell id="zSt_G3QFuuQzdCctbltx-21" value="初始化数据完成" style="html=1;verticalAlign=bottom;endArrow=open;dashed=1;endSize=8;exitX=0;exitY=0.95;" edge="1" parent="1" source="zSt_G3QFuuQzdCctbltx-50">
          <mxGeometry relative="1" as="geometry">
            <mxPoint x="180" y="217" as="targetPoint" />
          </mxGeometry>
        </mxCell>
        <mxCell id="zSt_G3QFuuQzdCctbltx-22" value="写入缓存数据" style="html=1;verticalAlign=bottom;endArrow=block;entryX=0;entryY=0;startArrow=none;" edge="1" parent="1" source="zSt_G3QFuuQzdCctbltx-50" target="zSt_G3QFuuQzdCctbltx-32">
          <mxGeometry relative="1" as="geometry">
            <mxPoint x="665" y="179" as="sourcePoint" />
          </mxGeometry>
        </mxCell>
        <mxCell id="zSt_G3QFuuQzdCctbltx-23" value="写入缓存数据成功" style="html=1;verticalAlign=bottom;endArrow=open;dashed=1;endSize=8;exitX=0;exitY=0.95;" edge="1" parent="1" source="zSt_G3QFuuQzdCctbltx-32" target="zSt_G3QFuuQzdCctbltx-8">
          <mxGeometry relative="1" as="geometry">
            <mxPoint x="665" y="255" as="targetPoint" />
          </mxGeometry>
        </mxCell>
        <mxCell id="zSt_G3QFuuQzdCctbltx-24" value="发送数据初始化副屏页面{step:0}" style="html=1;verticalAlign=bottom;endArrow=block;entryX=0;entryY=0;" edge="1" parent="1" source="zSt_G3QFuuQzdCctbltx-1" target="zSt_G3QFuuQzdCctbltx-9">
          <mxGeometry relative="1" as="geometry">
            <mxPoint x="474" y="259" as="sourcePoint" />
          </mxGeometry>
        </mxCell>
        <mxCell id="zSt_G3QFuuQzdCctbltx-25" value="初始化页面" style="html=1;verticalAlign=bottom;endArrow=block;entryX=0;entryY=0;" edge="1" parent="1" source="zSt_G3QFuuQzdCctbltx-9" target="zSt_G3QFuuQzdCctbltx-33">
          <mxGeometry relative="1" as="geometry">
            <mxPoint x="665" y="259" as="sourcePoint" />
          </mxGeometry>
        </mxCell>
        <mxCell id="zSt_G3QFuuQzdCctbltx-26" value="初始化完成" style="html=1;verticalAlign=bottom;endArrow=open;dashed=1;endSize=8;exitX=0;exitY=0.95;" edge="1" parent="1" source="zSt_G3QFuuQzdCctbltx-33" target="zSt_G3QFuuQzdCctbltx-8">
          <mxGeometry relative="1" as="geometry">
            <mxPoint x="665" y="335" as="targetPoint" />
          </mxGeometry>
        </mxCell>
        <mxCell id="zSt_G3QFuuQzdCctbltx-27" value="初始化完成" style="html=1;verticalAlign=bottom;endArrow=open;dashed=1;endSize=8;exitX=0;exitY=0.95;" edge="1" parent="1" source="zSt_G3QFuuQzdCctbltx-9" target="zSt_G3QFuuQzdCctbltx-1">
          <mxGeometry relative="1" as="geometry">
            <mxPoint x="474" y="335" as="targetPoint" />
          </mxGeometry>
        </mxCell>
        <mxCell id="zSt_G3QFuuQzdCctbltx-28" value="主页开单页面选择商品向副屏发送商品信息{step:1,shopList:Object}" style="html=1;verticalAlign=bottom;endArrow=block;entryX=0;entryY=0;" edge="1" parent="1" source="zSt_G3QFuuQzdCctbltx-1" target="zSt_G3QFuuQzdCctbltx-10">
          <mxGeometry relative="1" as="geometry">
            <mxPoint x="470" y="389" as="sourcePoint" />
          </mxGeometry>
        </mxCell>
        <mxCell id="zSt_G3QFuuQzdCctbltx-29" value="update" style="html=1;verticalAlign=bottom;endArrow=block;entryX=0;entryY=0;" edge="1" parent="1" source="zSt_G3QFuuQzdCctbltx-8" target="zSt_G3QFuuQzdCctbltx-34">
          <mxGeometry relative="1" as="geometry">
            <mxPoint x="665" y="389" as="sourcePoint" />
          </mxGeometry>
        </mxCell>
        <mxCell id="zSt_G3QFuuQzdCctbltx-30" value="update success" style="html=1;verticalAlign=bottom;endArrow=open;dashed=1;endSize=8;" edge="1" parent="1" source="zSt_G3QFuuQzdCctbltx-34" target="zSt_G3QFuuQzdCctbltx-8">
          <mxGeometry relative="1" as="geometry">
            <mxPoint x="665" y="465" as="targetPoint" />
            <Array as="points">
              <mxPoint x="650" y="449" />
            </Array>
          </mxGeometry>
        </mxCell>
        <mxCell id="zSt_G3QFuuQzdCctbltx-31" value="副屏 controll" style="shape=umlLifeline;perimeter=lifelinePerimeter;whiteSpace=wrap;html=1;container=1;collapsible=0;recursiveResize=0;outlineConnect=0;fillColor=#f8cecc;strokeColor=#b85450;" vertex="1" parent="1">
          <mxGeometry x="690" y="99" width="120" height="630" as="geometry" />
        </mxCell>
        <mxCell id="zSt_G3QFuuQzdCctbltx-32" value="" style="html=1;points=[];perimeter=orthogonalPerimeter;fillColor=#FF3333;" vertex="1" parent="zSt_G3QFuuQzdCctbltx-31">
          <mxGeometry x="55" y="80" width="10" height="30" as="geometry" />
        </mxCell>
        <mxCell id="zSt_G3QFuuQzdCctbltx-33" value="" style="html=1;points=[];perimeter=orthogonalPerimeter;fillColor=#FF3333;" vertex="1" parent="zSt_G3QFuuQzdCctbltx-31">
          <mxGeometry x="55" y="170" width="10" height="50" as="geometry" />
        </mxCell>
        <mxCell id="zSt_G3QFuuQzdCctbltx-34" value="" style="html=1;points=[];perimeter=orthogonalPerimeter;fillColor=#FF3333;" vertex="1" parent="zSt_G3QFuuQzdCctbltx-31">
          <mxGeometry x="55" y="290" width="10" height="60" as="geometry" />
        </mxCell>
        <mxCell id="zSt_G3QFuuQzdCctbltx-35" value="发送成功" style="html=1;verticalAlign=bottom;endArrow=open;dashed=1;endSize=8;exitX=0;exitY=0.95;" edge="1" parent="zSt_G3QFuuQzdCctbltx-31" source="zSt_G3QFuuQzdCctbltx-42">
          <mxGeometry relative="1" as="geometry">
            <mxPoint x="-510" y="476" as="targetPoint" />
          </mxGeometry>
        </mxCell>
        <mxCell id="zSt_G3QFuuQzdCctbltx-36" value="" style="html=1;points=[];perimeter=orthogonalPerimeter;fillColor=#FF3333;" vertex="1" parent="zSt_G3QFuuQzdCctbltx-31">
          <mxGeometry x="55" y="410" width="10" height="60" as="geometry" />
        </mxCell>
        <mxCell id="zSt_G3QFuuQzdCctbltx-37" value="主屏结算页面 向副屏发送结算信息 {step:2,settle:Object" style="html=1;verticalAlign=bottom;endArrow=block;entryX=0;entryY=0;" edge="1" parent="zSt_G3QFuuQzdCctbltx-31" target="zSt_G3QFuuQzdCctbltx-42">
          <mxGeometry relative="1" as="geometry">
            <mxPoint x="-505.5" y="400" as="sourcePoint" />
          </mxGeometry>
        </mxCell>
        <mxCell id="zSt_G3QFuuQzdCctbltx-38" value="update" style="html=1;verticalAlign=bottom;endArrow=block;entryX=0;entryY=0;startArrow=none;" edge="1" parent="zSt_G3QFuuQzdCctbltx-31" source="zSt_G3QFuuQzdCctbltx-42" target="zSt_G3QFuuQzdCctbltx-36">
          <mxGeometry relative="1" as="geometry">
            <mxPoint x="-136.5" y="410" as="sourcePoint" />
          </mxGeometry>
        </mxCell>
        <mxCell id="zSt_G3QFuuQzdCctbltx-39" value="更新完成" style="html=1;verticalAlign=bottom;endArrow=open;dashed=1;endSize=8;exitX=0;exitY=0.95;" edge="1" parent="zSt_G3QFuuQzdCctbltx-31" source="zSt_G3QFuuQzdCctbltx-18">
          <mxGeometry relative="1" as="geometry">
            <mxPoint x="54.5" y="458" as="targetPoint" />
          </mxGeometry>
        </mxCell>
        <mxCell id="zSt_G3QFuuQzdCctbltx-40" value="update success" style="html=1;verticalAlign=bottom;endArrow=open;dashed=1;endSize=8;" edge="1" parent="zSt_G3QFuuQzdCctbltx-31" source="zSt_G3QFuuQzdCctbltx-36">
          <mxGeometry relative="1" as="geometry">
            <mxPoint x="-136.5" y="470" as="targetPoint" />
            <Array as="points">
              <mxPoint x="-35" y="470" />
            </Array>
          </mxGeometry>
        </mxCell>
        <mxCell id="zSt_G3QFuuQzdCctbltx-41" value="" style="html=1;points=[];perimeter=orthogonalPerimeter;fillColor=#FF3333;" vertex="1" parent="zSt_G3QFuuQzdCctbltx-31">
          <mxGeometry x="55" y="530" width="10" height="70" as="geometry" />
        </mxCell>
        <mxCell id="zSt_G3QFuuQzdCctbltx-42" value="" style="html=1;points=[];perimeter=orthogonalPerimeter;fillColor=#FF3333;" vertex="1" parent="zSt_G3QFuuQzdCctbltx-31">
          <mxGeometry x="-130.5" y="400" width="10" height="80" as="geometry" />
        </mxCell>
        <mxCell id="zSt_G3QFuuQzdCctbltx-43" value="更新页面" style="html=1;verticalAlign=bottom;endArrow=block;entryX=0;entryY=0;" edge="1" parent="1" source="zSt_G3QFuuQzdCctbltx-34" target="zSt_G3QFuuQzdCctbltx-17">
          <mxGeometry relative="1" as="geometry">
            <mxPoint x="895" y="399" as="sourcePoint" />
          </mxGeometry>
        </mxCell>
        <mxCell id="zSt_G3QFuuQzdCctbltx-44" value="更新页面" style="html=1;verticalAlign=bottom;endArrow=block;entryX=0;entryY=0;" edge="1" parent="1" source="zSt_G3QFuuQzdCctbltx-36" target="zSt_G3QFuuQzdCctbltx-18">
          <mxGeometry relative="1" as="geometry">
            <mxPoint x="900" y="519" as="sourcePoint" />
          </mxGeometry>
        </mxCell>
        <mxCell id="zSt_G3QFuuQzdCctbltx-45" value="更新页面" style="html=1;verticalAlign=bottom;endArrow=block;entryX=0;entryY=0;" edge="1" parent="1" source="zSt_G3QFuuQzdCctbltx-41" target="zSt_G3QFuuQzdCctbltx-19">
          <mxGeometry relative="1" as="geometry">
            <mxPoint x="894" y="639" as="sourcePoint" />
          </mxGeometry>
        </mxCell>
        <mxCell id="zSt_G3QFuuQzdCctbltx-46" value="渲染副屏页面" style="html=1;verticalAlign=bottom;endArrow=block;entryX=0;entryY=0;" edge="1" parent="1" source="zSt_G3QFuuQzdCctbltx-31" target="zSt_G3QFuuQzdCctbltx-16">
          <mxGeometry relative="1" as="geometry">
            <mxPoint x="895" y="279" as="sourcePoint" />
          </mxGeometry>
        </mxCell>
        <mxCell id="zSt_G3QFuuQzdCctbltx-47" value="渲染成功" style="html=1;verticalAlign=bottom;endArrow=open;dashed=1;endSize=8;exitX=0;exitY=0.95;" edge="1" parent="1" source="zSt_G3QFuuQzdCctbltx-16" target="zSt_G3QFuuQzdCctbltx-31">
          <mxGeometry relative="1" as="geometry">
            <mxPoint x="895" y="355" as="targetPoint" />
          </mxGeometry>
        </mxCell>
        <mxCell id="zSt_G3QFuuQzdCctbltx-48" value="更新完成" style="html=1;verticalAlign=bottom;endArrow=open;dashed=1;endSize=8;exitX=0;exitY=0.95;" edge="1" parent="1" source="zSt_G3QFuuQzdCctbltx-17" target="zSt_G3QFuuQzdCctbltx-31">
          <mxGeometry relative="1" as="geometry">
            <mxPoint x="895" y="475" as="targetPoint" />
          </mxGeometry>
        </mxCell>
        <mxCell id="zSt_G3QFuuQzdCctbltx-49" value="更新完成" style="html=1;verticalAlign=bottom;endArrow=open;dashed=1;endSize=8;exitX=0;exitY=0.95;" edge="1" parent="1" source="zSt_G3QFuuQzdCctbltx-19">
          <mxGeometry relative="1" as="geometry">
            <mxPoint x="756" y="686.9999999999998" as="targetPoint" />
          </mxGeometry>
        </mxCell>
        <mxCell id="zSt_G3QFuuQzdCctbltx-50" value="" style="html=1;points=[];perimeter=orthogonalPerimeter;fillColor=#FF3333;" vertex="1" parent="1">
          <mxGeometry x="559.5" y="169" width="10" height="50" as="geometry" />
        </mxCell>
        <mxCell id="zSt_G3QFuuQzdCctbltx-51" value="" style="html=1;verticalAlign=bottom;endArrow=none;entryX=0;entryY=0;" edge="1" parent="1" source="zSt_G3QFuuQzdCctbltx-8" target="zSt_G3QFuuQzdCctbltx-50">
          <mxGeometry relative="1" as="geometry">
            <mxPoint x="564" y="179" as="sourcePoint" />
            <mxPoint x="735" y="179" as="targetPoint" />
          </mxGeometry>
        </mxCell>
        <mxCell id="zSt_G3QFuuQzdCctbltx-52" value="update" style="html=1;verticalAlign=bottom;endArrow=block;entryX=0;entryY=0;" edge="1" parent="1" source="zSt_G3QFuuQzdCctbltx-12" target="zSt_G3QFuuQzdCctbltx-41">
          <mxGeometry relative="1" as="geometry">
            <mxPoint x="580" y="629" as="sourcePoint" />
          </mxGeometry>
        </mxCell>
        <mxCell id="zSt_G3QFuuQzdCctbltx-53" value="发送成功" style="html=1;verticalAlign=bottom;endArrow=open;dashed=1;endSize=8;entryX=0.7;entryY=1.011;entryDx=0;entryDy=0;entryPerimeter=0;" edge="1" parent="1" target="zSt_G3QFuuQzdCctbltx-6">
          <mxGeometry relative="1" as="geometry">
            <mxPoint x="184" y="700" as="targetPoint" />
            <mxPoint x="560" y="710" as="sourcePoint" />
          </mxGeometry>
        </mxCell>
      </root>
    </mxGraphModel>
  </diagram>
</mxfile>
